<svg xmlns="http://www.w3.org/2000/svg" viewBox="0 0 400 560">
  <defs>
    <linearGradient id="fire-bg" x1="0" y1="0" x2="1" y2="1">
      <stop offset="0%" stop-color="#3c1f12" />
      <stop offset="100%" stop-color="#0d0804" />
    </linearGradient>
    <radialGradient id="fire-core" cx="0.4" cy="0.3" r="0.7">
      <stop offset="0%" stop-color="#ffba68" stop-opacity="1" />
      <stop offset="60%" stop-color="#ff6b40" stop-opacity="0.8" />
      <stop offset="100%" stop-color="#ff6b40" stop-opacity="0" />
    </radialGradient>
  </defs>
  <rect width="400" height="560" fill="url(#fire-bg)" rx="28" />
  <circle cx="160" cy="180" r="200" fill="url(#fire-core)" />
  <path
    d="M68 360c94-18 178-70 252-150-22 82-68 160-136 212-40 30-86 46-140 54 10-44 16-84 24-116z"
    fill="#ff9154"
    opacity="0.6"
  />
  <path
    d="M198 164c32-38 78-62 128-70-38 40-66 88-80 142-28-24-40-48-48-72z"
    fill="#ffd6a3"
    opacity="0.55"
  />
  <path
    d="M124 410c50-24 104-28 158-8-60 20-116 28-170 22l12-14z"
    fill="#ffb680"
    opacity="0.6"
  />
  <text
    x="40"
    y="500"
    font-family="'Trebuchet MS', 'Segoe UI', sans-serif"
    font-size="48"
    letter-spacing="4"
    fill="#ffe9cf"
  >
    FIREBALL
  </text>
</svg>
