<svg xmlns="http://www.w3.org/2000/svg" viewBox="0 0 400 560">
  <defs>
    <linearGradient id="knight-bg" x1="0" y1="0" x2="1" y2="1">
      <stop offset="0%" stop-color="#2a2f45" />
      <stop offset="100%" stop-color="#0c0f1d" />
    </linearGradient>
    <radialGradient id="knight-shield" cx="0.35" cy="0.3" r="0.8">
      <stop offset="0%" stop-color="#a5b0ff" stop-opacity="0.9" />
      <stop offset="100%" stop-color="#a5b0ff" stop-opacity="0" />
    </radialGradient>
  </defs>
  <rect width="400" height="560" fill="url(#knight-bg)" rx="28" />
  <path
    d="M86 452c34-106 138-206 230-256 14 66-22 154-76 218-46 54-108 90-178 102 10-24 18-46 24-64z"
    fill="#5d6cff"
    opacity="0.5"
  />
  <path
    d="M144 130c-14 68 20 130 84 166-20-56-16-116 16-170-34-6-70-4-100 4z"
    fill="#d0d7ff"
    opacity="0.45"
  />
  <path
    d="M184 212c36-36 88-48 144-34-44-36-108-52-168-40 8 26 16 50 24 74z"
    fill="#303857"
    opacity="0.6"
  />
  <circle cx="120" cy="180" r="120" fill="url(#knight-shield)" />
  <text
    x="40"
    y="500"
    font-family="'Trebuchet MS', 'Segoe UI', sans-serif"
    font-size="48"
    letter-spacing="4"
    fill="#e8ebff"
  >
    KNIGHT
  </text>
</svg>
