<svg xmlns="http://www.w3.org/2000/svg" viewBox="0 0 400 560">
  <defs>
    <linearGradient id="mage-bg" x1="0" y1="0" x2="1" y2="1">
      <stop offset="0%" stop-color="#2b1c3f" />
      <stop offset="100%" stop-color="#090814" />
    </linearGradient>
    <radialGradient id="mage-burst" cx="0.5" cy="0.2" r="0.7">
      <stop offset="0%" stop-color="#d28eff" stop-opacity="0.95" />
      <stop offset="70%" stop-color="#8a5cff" stop-opacity="0.4" />
      <stop offset="100%" stop-color="#8a5cff" stop-opacity="0" />
    </radialGradient>
  </defs>
  <rect width="400" height="560" fill="url(#mage-bg)" rx="28" />
  <circle cx="200" cy="120" r="200" fill="url(#mage-burst)" />
  <path
    d="M60 356c80-24 152-82 232-148-20 72-60 154-120 206-40 36-88 60-144 72 12-48 20-90 32-130z"
    fill="#caa5ff"
    opacity="0.45"
  />
  <path
    d="M214 176l18-74 48 64 64-12-36 62 40 52-68-12-38 58-12-72-70-16 54-38z"
    fill="#f3f2ff"
    opacity="0.5"
  />
  <path
    d="M140 428c44-40 106-58 168-42-54 28-110 46-168 50l0-8z"
    fill="#7440ff"
    opacity="0.6"
  />
  <text
    x="40"
    y="500"
    font-family="'Trebuchet MS', 'Segoe UI', sans-serif"
    font-size="48"
    letter-spacing="4"
    fill="#f2e8ff"
  >
    MAGE BOLT
  </text>
</svg>
