<svg xmlns="http://www.w3.org/2000/svg" viewBox="0 0 64 64" fill="none">
  <rect width="64" height="64" rx="12" fill="#0B3D91"/>
  <path d="M18 44V20h10.8c4.2 0 6.6 2.7 6.6 6.1 0 2.5-1.4 4.8-3.6 5.5 2.9.6 4.9 3 4.9 6.3C36.7 41.1 33.8 44 28.8 44H18zm6-14.7h4.4c1.7 0 2.8-1.1 2.8-2.7s-1.1-2.7-2.8-2.7H24v5.4zm0 9.3h4.7c2.1 0 3.3-1.3 3.3-3 0-1.9-1.2-3.1-3.3-3.1H24v6.1z" fill="#F5F7FA"/>
  <path d="M45.8 20.4c1.6 0 3 .5 4 .9l-1 4c-.8-.4-1.8-.8-2.6-.8-2 0-3.4 1.6-3.4 4.3V44h-4.8V20.7h4.6v2.8c.9-1.9 2.5-3.1 4.2-3.1z" fill="#F5F7FA"/>
</svg>
